<?xml version="1.0" ?><svg fill="none" height="24" viewBox="0 0 24 24" width="24" xmlns="http://www.w3.org/2000/svg"><path clip-rule="evenodd" d="M9.5 6.5C9.5 5.11929 10.6193 4 12 4C13.3807 4 14.5 5.11929 14.5 6.5C14.5 7.88071 13.3807 9 12 9C10.6193 9 9.5 7.88071 9.5 6.5ZM12 2C9.51472 2 7.5 4.01472 7.5 6.5C7.5 8.98528 9.51472 11 12 11C14.4853 11 16.5 8.98528 16.5 6.5C16.5 4.01472 14.4853 2 12 2ZM6.94202 16.401C8.4699 15.4843 10.2182 15 12 15C13.7818 15 15.5301 15.4843 17.058 16.401L17.664 16.7646C18.4929 17.2619 19 18.1576 19 19.1242C19 19.6079 18.6079 20 18.1242 20H5.87584C5.39213 20 5 19.6079 5 19.1242C5 18.1576 5.50713 17.2619 6.33595 16.7646L6.94202 16.401ZM12 13C9.85571 13 7.75174 13.5828 5.91302 14.686L5.30696 15.0496C3.87573 15.9084 3 17.4551 3 19.1242C3 20.7124 4.28756 22 5.87584 22H18.1242C19.7124 22 21 20.7124 21 19.1242C21 17.4551 20.1243 15.9084 18.693 15.0496L18.087 14.686C16.2483 13.5828 14.1443 13 12 13Z" fill="#222222" fill-rule="evenodd"/></svg>